# xmcd
#
# Track frame offsets:
#	150
#	12109
#	25072
#	50797
#	63130
#	81282
#	100777
#	114620
#	130937
#	145700
#	161970
#
# Disc length: 2385 seconds
#
# Revision: 0
# Processed by: cddbd v1.4PL0 Copyright (c) Steve Scherf et al.
# Submitted via: audiograbber 1.81.02
#
DISCID=8e094f0b
DTITLE=Savoy Brown - Raw Live 'n' Blue CD 2
DYEAR=1980
DGENRE=Blues-Rock
TTITLE0=Cold Hearted Woman
TTITLE1=Georgie
TTITLE2=Bad Breaks
TTITLE3=Don't Tell Me I Told You
TTITLE4=This Could Be The Night
TTITLE5=Lay Back In The Arms Of Someone
TTITLE6=Shot Down By Love
TTITLE7=Bad Girls (Make Me Feel Good)
TTITLE8=Got Love If You Want It
TTITLE9=Nobody's Perfect
TTITLE10=Run To Me
EXTD=Label :\nAkarma Records\n(Recorded in Sudio during 1980 session)
EXTT0=
EXTT1=
EXTT2=
EXTT3=
EXTT4=
EXTT5=
EXTT6=
EXTT7=
EXTT8=
EXTT9=
EXTT10=Bonus Track :
PLAYORDER=
